<mxfile host="app.diagrams.net" modified="2024-06-19T18:02:57.252Z" agent="Mozilla/5.0 (Windows NT 10.0; Win64; x64) AppleWebKit/537.36 (KHTML, like Gecko) Chrome/126.0.0.0 Safari/537.36" etag="j1mn-jvAf-Uq2T0c8haO" version="24.5.5" type="github">
  <diagram name="Page-1" id="AVW2zE_8cHlMsQN8WL0n">
    <mxGraphModel dx="1434" dy="780" grid="1" gridSize="10" guides="1" tooltips="1" connect="1" arrows="1" fold="1" page="1" pageScale="1" pageWidth="827" pageHeight="1169" math="0" shadow="0">
      <root>
        <mxCell id="0" />
        <mxCell id="1" parent="0" />
        <mxCell id="onfRrz452DNacy3LFlYb-1" value="Usuario" style="swimlane;fontStyle=1;align=center;verticalAlign=top;childLayout=stackLayout;horizontal=1;startSize=26;horizontalStack=0;resizeParent=1;resizeParentMax=0;resizeLast=0;collapsible=1;marginBottom=0;whiteSpace=wrap;html=1;" vertex="1" parent="1">
          <mxGeometry x="304" y="510" width="220" height="560" as="geometry" />
        </mxCell>
        <mxCell id="onfRrz452DNacy3LFlYb-2" value="+ login: String&lt;div&gt;- password: String&lt;/div&gt;&lt;div&gt;# email: String&lt;/div&gt;&lt;div&gt;# phone: String&lt;/div&gt;&lt;div&gt;# addr: String&lt;/div&gt;&lt;div&gt;# cpf: String&lt;/div&gt;&lt;div&gt;+ favoritos: vector&amp;lt;Anuncios&amp;gt;&lt;/div&gt;&lt;div&gt;+ anuncios: vector&amp;lt;Anuncios&amp;gt;&lt;/div&gt;&lt;div&gt;+ compras: vector&amp;lt;Compras&amp;gt;&lt;/div&gt;" style="text;strokeColor=none;fillColor=none;align=left;verticalAlign=top;spacingLeft=4;spacingRight=4;overflow=hidden;rotatable=0;points=[[0,0.5],[1,0.5]];portConstraint=eastwest;whiteSpace=wrap;html=1;" vertex="1" parent="onfRrz452DNacy3LFlYb-1">
          <mxGeometry y="26" width="220" height="144" as="geometry" />
        </mxCell>
        <mxCell id="onfRrz452DNacy3LFlYb-4" value="+ criarAnuncio(produto: Produto): Anuncio&lt;div&gt;+ deletarAnuncio(anuncioDeletar: Anuncio): bool&lt;/div&gt;&lt;div&gt;+ comprar(anuncioComprar: Anuncio): Compra&lt;/div&gt;&lt;div&gt;+ cancelarCompra(compraCancelar: Compra): bool&lt;/div&gt;&lt;div&gt;+ favoritar(anuncioFavoritar: Anuncio): bool&lt;/div&gt;" style="text;strokeColor=none;fillColor=none;align=left;verticalAlign=top;spacingLeft=4;spacingRight=4;overflow=hidden;rotatable=0;points=[[0,0.5],[1,0.5]];portConstraint=eastwest;whiteSpace=wrap;html=1;" vertex="1" parent="onfRrz452DNacy3LFlYb-1">
          <mxGeometry y="170" width="220" height="210" as="geometry" />
        </mxCell>
        <mxCell id="onfRrz452DNacy3LFlYb-3" value="" style="line;strokeWidth=1;fillColor=none;align=left;verticalAlign=middle;spacingTop=-1;spacingLeft=3;spacingRight=3;rotatable=0;labelPosition=right;points=[];portConstraint=eastwest;strokeColor=inherit;" vertex="1" parent="onfRrz452DNacy3LFlYb-1">
          <mxGeometry y="380" width="220" height="20" as="geometry" />
        </mxCell>
        <mxCell id="onfRrz452DNacy3LFlYb-18" value="FazerLogin()&lt;div&gt;desfazerLogin(0&lt;/div&gt;&lt;div&gt;comprar()&lt;/div&gt;&lt;div&gt;vender()&lt;/div&gt;&lt;div&gt;addLocalização()&lt;/div&gt;&lt;div&gt;olharprodutos()&lt;/div&gt;&lt;div&gt;visitarLoja()&lt;/div&gt;&lt;div&gt;avaliarProduto()&lt;/div&gt;&lt;div&gt;&lt;br&gt;&lt;/div&gt;&lt;div&gt;&lt;br&gt;&lt;/div&gt;" style="text;html=1;align=center;verticalAlign=middle;resizable=0;points=[];autosize=1;strokeColor=none;fillColor=none;" vertex="1" parent="onfRrz452DNacy3LFlYb-1">
          <mxGeometry y="400" width="220" height="160" as="geometry" />
        </mxCell>
        <mxCell id="onfRrz452DNacy3LFlYb-5" value="Anuncio" style="swimlane;fontStyle=1;align=center;verticalAlign=top;childLayout=stackLayout;horizontal=1;startSize=26;horizontalStack=0;resizeParent=1;resizeParentMax=0;resizeLast=0;collapsible=1;marginBottom=0;whiteSpace=wrap;html=1;" vertex="1" parent="1">
          <mxGeometry x="609" y="270" width="160" height="278" as="geometry" />
        </mxCell>
        <mxCell id="onfRrz452DNacy3LFlYb-6" value="&lt;div&gt;&lt;div&gt;+postar: string&lt;/div&gt;&lt;/div&gt;&lt;div&gt;+localização:string&lt;/div&gt;&lt;div&gt;+descrição:string&lt;/div&gt;&lt;div&gt;+promoção: float&lt;/div&gt;" style="text;strokeColor=none;fillColor=none;align=left;verticalAlign=top;spacingLeft=4;spacingRight=4;overflow=hidden;rotatable=0;points=[[0,0.5],[1,0.5]];portConstraint=eastwest;whiteSpace=wrap;html=1;" vertex="1" parent="onfRrz452DNacy3LFlYb-5">
          <mxGeometry y="26" width="160" height="74" as="geometry" />
        </mxCell>
        <mxCell id="onfRrz452DNacy3LFlYb-7" value="" style="line;strokeWidth=1;fillColor=none;align=left;verticalAlign=middle;spacingTop=-1;spacingLeft=3;spacingRight=3;rotatable=0;labelPosition=right;points=[];portConstraint=eastwest;strokeColor=inherit;" vertex="1" parent="onfRrz452DNacy3LFlYb-5">
          <mxGeometry y="100" width="160" height="18" as="geometry" />
        </mxCell>
        <mxCell id="onfRrz452DNacy3LFlYb-19" value="vender()&lt;div&gt;adcionarPreço()&lt;/div&gt;&lt;div&gt;editarProduto()&lt;/div&gt;&lt;div&gt;editarPreço()&lt;/div&gt;&lt;div&gt;adicionarPromoçao()&lt;/div&gt;&lt;div&gt;editarPromoçao()&lt;/div&gt;&lt;div&gt;excluirPromoçao()&lt;/div&gt;&lt;div&gt;adcionarDescriçao()&lt;/div&gt;&lt;div&gt;editarDescriçao()&lt;/div&gt;&lt;div&gt;excluirDescrição()&lt;/div&gt;" style="text;html=1;align=center;verticalAlign=middle;resizable=0;points=[];autosize=1;strokeColor=none;fillColor=none;" vertex="1" parent="onfRrz452DNacy3LFlYb-5">
          <mxGeometry y="118" width="160" height="160" as="geometry" />
        </mxCell>
        <mxCell id="onfRrz452DNacy3LFlYb-9" value="Compra" style="swimlane;fontStyle=1;align=center;verticalAlign=top;childLayout=stackLayout;horizontal=1;startSize=26;horizontalStack=0;resizeParent=1;resizeParentMax=0;resizeLast=0;collapsible=1;marginBottom=0;whiteSpace=wrap;html=1;" vertex="1" parent="1">
          <mxGeometry x="20" y="270" width="160" height="218" as="geometry" />
        </mxCell>
        <mxCell id="onfRrz452DNacy3LFlYb-10" value="+pagamento: string&lt;div&gt;+individualidade:string&lt;/div&gt;" style="text;strokeColor=none;fillColor=none;align=left;verticalAlign=top;spacingLeft=4;spacingRight=4;overflow=hidden;rotatable=0;points=[[0,0.5],[1,0.5]];portConstraint=eastwest;whiteSpace=wrap;html=1;" vertex="1" parent="onfRrz452DNacy3LFlYb-9">
          <mxGeometry y="26" width="160" height="64" as="geometry" />
        </mxCell>
        <mxCell id="onfRrz452DNacy3LFlYb-11" value="" style="line;strokeWidth=1;fillColor=none;align=left;verticalAlign=middle;spacingTop=-1;spacingLeft=3;spacingRight=3;rotatable=0;labelPosition=right;points=[];portConstraint=eastwest;strokeColor=inherit;" vertex="1" parent="onfRrz452DNacy3LFlYb-9">
          <mxGeometry y="90" width="160" height="28" as="geometry" />
        </mxCell>
        <mxCell id="onfRrz452DNacy3LFlYb-20" value="comprar()&lt;div&gt;adcionarCartão()&lt;/div&gt;&lt;div&gt;removerCartão()&lt;/div&gt;&lt;div&gt;adcionarIndividualidade()&lt;/div&gt;&lt;div&gt;editarIndividualidade()&lt;/div&gt;&lt;div&gt;excluirIndividualidade()&lt;/div&gt;" style="text;html=1;align=center;verticalAlign=middle;resizable=0;points=[];autosize=1;strokeColor=none;fillColor=none;" vertex="1" parent="onfRrz452DNacy3LFlYb-9">
          <mxGeometry y="118" width="160" height="100" as="geometry" />
        </mxCell>
        <mxCell id="onfRrz452DNacy3LFlYb-13" value="Produto" style="swimlane;fontStyle=1;align=center;verticalAlign=top;childLayout=stackLayout;horizontal=1;startSize=26;horizontalStack=0;resizeParent=1;resizeParentMax=0;resizeLast=0;collapsible=1;marginBottom=0;whiteSpace=wrap;html=1;" vertex="1" parent="1">
          <mxGeometry x="334" y="10" width="160" height="240" as="geometry" />
        </mxCell>
        <mxCell id="onfRrz452DNacy3LFlYb-14" value="&lt;div&gt;+preço: float&lt;/div&gt;&lt;div&gt;+avaliação:float&lt;/div&gt;&lt;div&gt;+nome: string&lt;/div&gt;&lt;div&gt;+estoque:int&lt;/div&gt;&lt;div&gt;&lt;br&gt;&lt;/div&gt;" style="text;strokeColor=none;fillColor=none;align=left;verticalAlign=top;spacingLeft=4;spacingRight=4;overflow=hidden;rotatable=0;points=[[0,0.5],[1,0.5]];portConstraint=eastwest;whiteSpace=wrap;html=1;" vertex="1" parent="onfRrz452DNacy3LFlYb-13">
          <mxGeometry y="26" width="160" height="74" as="geometry" />
        </mxCell>
        <mxCell id="onfRrz452DNacy3LFlYb-15" value="" style="line;strokeWidth=1;fillColor=none;align=left;verticalAlign=middle;spacingTop=-1;spacingLeft=3;spacingRight=3;rotatable=0;labelPosition=right;points=[];portConstraint=eastwest;strokeColor=inherit;" vertex="1" parent="onfRrz452DNacy3LFlYb-13">
          <mxGeometry y="100" width="160" height="30" as="geometry" />
        </mxCell>
        <mxCell id="onfRrz452DNacy3LFlYb-21" value="adcionadoCarrinho()&lt;div&gt;excluidoCarrinho()&lt;/div&gt;&lt;div&gt;adcionadofavorito()&lt;/div&gt;&lt;div&gt;excluidoFavorito()&lt;/div&gt;&lt;div&gt;adcionarNome()&lt;/div&gt;&lt;div&gt;editarNome()&lt;/div&gt;&lt;div&gt;&lt;br&gt;&lt;/div&gt;" style="text;html=1;align=center;verticalAlign=middle;resizable=0;points=[];autosize=1;strokeColor=none;fillColor=none;" vertex="1" parent="onfRrz452DNacy3LFlYb-13">
          <mxGeometry y="130" width="160" height="110" as="geometry" />
        </mxCell>
      </root>
    </mxGraphModel>
  </diagram>
</mxfile>
